<svg xmlns="http://www.w3.org/2000/svg" xmlns:xlink="http://www.w3.org/1999/xlink" viewBox="0,0,256,256" width="24px" height="24px" fill-rule="nonzero"><g fill="#ffffff" fill-rule="nonzero" stroke="none" stroke-width="1" stroke-linecap="butt" stroke-linejoin="miter" stroke-miterlimit="10" stroke-dasharray="" stroke-dashoffset="0" font-family="none" font-weight="none" font-size="none" text-anchor="none" style="mix-blend-mode: normal"><g transform="scale(10.66667,10.66667)"><path d="M15.9043,1.07813c-0.06094,-0.00937 -0.13008,-0.00352 -0.20508,0.02148c-1,0.2 -2.09883,0.8 -2.79883,1.5c-0.6,0.6 -1.09961,1.6 -1.09961,2.5c0,0.2 0.19844,0.40039 0.39844,0.40039c1.1,-0.1 2.20039,-0.70039 2.90039,-1.40039c0.6,-0.8 1.09961,-1.69961 1.09961,-2.59961c0,-0.225 -0.11211,-0.39375 -0.29492,-0.42187zM16.19922,5.40039c-1.8,0 -2.59883,1.09961 -3.79883,1.09961c-1.3,0 -2.5,-1 -4,-1c-2.1,0 -5.30078,1.99961 -5.30078,6.59961c-0.1,4.2 3.70039,8.90039 5.90039,8.90039c1.3,0 1.60039,-0.80078 3.40039,-0.80078c1.8,0 2.2,0.80078 3.5,0.80078c1.5,0 2.6,-1.60039 3.5,-2.90039c0.4,-0.7 0.7,-1.09922 1,-1.69922c0.2,-0.4 -0.00039,-0.8 -0.40039,-1c-2.6,-1.3 -3.09922,-5.5 -0.19922,-7c0.5,-0.3 0.59922,-0.90117 0.19922,-1.20117c-1.1,-1 -2.70078,-1.79883 -3.80078,-1.79883z"></path></g></g></svg>